<?xml version="1.0" encoding="UTF-8"?>
<svg version="1.1" xmlns="http://www.w3.org/2000/svg" width="479" height="596">
<path d="M0 0 C2.46306144 1.61710461 2.46306144 1.61710461 5.46875 2.49609375 C5.78328125 1.820625 6.0978125 1.14515625 6.421875 0.44921875 C11.15827471 -9.42303607 11.15827471 -9.42303607 14.46875 -11.50390625 C19.88701923 -12.27794471 19.88701923 -12.27794471 22.46875 -11.50390625 C26.84701489 -7.97455684 28.79389649 -4.14489335 30.59375 1.05859375 C30.95146484 2.01862305 30.95146484 2.01862305 31.31640625 2.99804688 C32.45551353 6.15368191 33.40919221 9.07434973 33.88037109 12.41088867 C34.63573496 17.14626699 35.31466156 20.39837982 38.86279297 23.77319336 C42.09598481 25.94257943 45.41879167 27.84291123 48.84375 29.68359375 C50.10567591 30.39985309 51.36540719 31.11999116 52.62304688 31.84375 C55.24443004 33.34552473 57.87614607 34.826074 60.51855469 36.29052734 C66.12798734 39.4072033 71.64587991 42.67813547 77.17245483 45.93862915 C78.98081757 47.00319783 80.7922206 48.06239252 82.60473633 49.11987305 C93.88806132 55.70523921 105.05388132 62.47754461 116.20362854 69.28593445 C120.39002319 71.84146058 124.58386985 74.38443846 128.78125 76.921875 C154.32624291 92.36953963 154.32624291 92.36953963 166.60351562 100.29589844 C168.2849376 101.37781865 169.97775372 102.44198145 171.671875 103.50390625 C178.39139282 107.88534623 182.45507019 112.55466103 184.78125 120.30859375 C186.61223762 129.41020212 186.03876084 138.28381862 181.46875 146.49609375 C176.59295849 153.37887619 170.58541874 157.30341002 163.34375 161.43359375 C162.25626465 162.06982666 161.1687793 162.70605957 160.04833984 163.36157227 C157.72369287 164.71995429 155.39681727 166.07302841 153.06445312 167.41796875 C149.47524736 169.48887073 145.90021258 171.58333447 142.328125 173.68359375 C138.08456513 176.17762683 133.83920831 178.66848942 129.5900116 181.15290833 C118.56350567 187.60060706 107.58122966 194.12224484 96.59667969 200.64111328 C91.78629968 203.49385035 86.9716174 206.3392857 82.15625 209.18359375 C81.26389648 209.71073975 80.37154297 210.23788574 79.45214844 210.78100586 C75.90866419 212.8740902 72.36497253 214.96682327 68.82128906 217.05957031 C58.44380911 223.18842378 48.06977457 229.32301395 37.70220947 235.46862793 C35.96807074 236.49649636 34.23381314 237.52416391 32.49951172 238.55175781 C27.25767983 241.65764199 22.01640823 244.76444982 16.77734375 247.875 C12.31415548 250.52347209 7.84213194 253.15660722 3.3671875 255.78515625 C0.16409513 257.67593045 -3.02672151 259.58670684 -6.21875 261.49609375 C-7.37313885 262.17976231 -8.52800516 262.86262531 -9.68334961 263.54467773 C-11.88306341 264.84365684 -14.07707049 266.15237241 -16.26391602 267.47290039 C-32.24977391 276.84723729 -49.24383067 279.63891603 -67.42700195 276.06542969 C-77.46961943 273.34824858 -86.37251502 267.92574994 -95.21875 262.62109375 C-96.49571617 261.86329568 -97.77306745 261.1061462 -99.05078125 260.34960938 C-102.88425897 258.07616941 -106.70883864 255.78807874 -110.53125 253.49609375 C-111.62260254 252.8422168 -112.71395508 252.18833984 -113.83837891 251.51464844 C-117.92075168 249.06663094 -122.0016329 246.61617312 -126.0793457 244.16040039 C-134.59862284 239.03534891 -143.16772211 233.99891938 -151.75 228.98046875 C-161.64252925 223.19585419 -171.50888881 217.36916399 -181.36230469 211.51806641 C-189.60881566 206.62523276 -197.87874835 201.77373365 -206.15625 196.93359375 C-216.27859977 191.01455985 -226.35634545 185.02686606 -236.39501953 178.96655273 C-241.6049859 175.82773056 -246.83401125 172.72992239 -252.10546875 169.6953125 C-253.18272217 169.07422607 -254.25997559 168.45313965 -255.36987305 167.81323242 C-257.40302998 166.64458719 -259.43940794 165.48151854 -261.47973633 164.32543945 C-270.92358734 158.89615099 -282.1734441 152.20785464 -286.703125 141.8046875 C-287.73705461 137.6738461 -287.86144949 133.86189071 -287.84375 129.62109375 C-287.85986328 128.85667969 -287.87597656 128.09226563 -287.89257812 127.3046875 C-287.89795227 120.9739392 -286.65339459 115.64489747 -283.0859375 110.3515625 C-267.54952742 94.92354598 -245.48630858 84.98884179 -226.796875 73.91015625 C-224.78405999 72.71688822 -222.77125447 71.52360419 -220.75848389 70.33026123 C-219.39534676 69.5221847 -218.03210568 68.71428352 -216.66876221 67.90655518 C-206.61038761 61.94604797 -196.60144202 55.90970037 -186.62094116 49.81988525 C-177.21188035 44.08262458 -167.72819776 38.48300662 -158.20767212 32.93304443 C-149.25765395 27.71323755 -140.37366776 22.39602691 -131.53125 16.99609375 C-118.37290171 8.96176657 -105.09769018 1.13616323 -91.77001953 -6.61376953 C-89.57350544 -7.89564893 -87.38190478 -9.1859778 -85.19482422 -10.48388672 C-84.1379541 -11.10924316 -83.08108398 -11.73459961 -81.9921875 -12.37890625 C-81.05681152 -12.93578125 -80.12143555 -13.49265625 -79.15771484 -14.06640625 C-51.94281786 -28.96149023 -23.35269902 -14.9565611 0 0 Z M18.46875 6.49609375 C16.80795307 10.7931557 15.25601711 15.08411942 13.890625 19.484375 C6.34165472 43.71817002 6.34165472 43.71817002 -3.15625 49.87109375 C-14.65563292 55.89704666 -27.04939457 59.20402189 -39.53125 62.49609375 C-36.50296905 64.1342352 -33.56048464 65.14254468 -30.2421875 66.046875 C-29.21738281 66.33369141 -28.19257813 66.62050781 -27.13671875 66.91601562 C-25.00785073 67.5042216 -22.87766241 68.08767283 -20.74609375 68.66601562 C-8.65786815 72.06913032 0.59207611 75.99569492 7.01953125 87.19921875 C10.80633139 94.8315291 13.20803144 102.76065835 15.46508789 110.95605469 C15.69832764 111.78911133 15.93156738 112.62216797 16.171875 113.48046875 C16.47593262 114.60533691 16.47593262 114.60533691 16.78613281 115.75292969 C17.3255722 117.70357833 17.3255722 117.70357833 19.46875 118.49609375 C19.64937988 117.8319043 19.83000977 117.16771484 20.01611328 116.48339844 C29.49096666 81.97170888 29.49096666 81.97170888 41.46875 74.49609375 C52.2767625 69.42343682 63.95413963 66.50801729 75.46875 63.49609375 C73.23344801 61.26079176 72.17541969 60.99022366 69.171875 60.234375 C68.30175781 60.00613037 67.43164062 59.77788574 66.53515625 59.54272461 C65.60574219 59.30046143 64.67632812 59.05819824 63.71875 58.80859375 C49.79250301 55.00048716 37.37744676 50.62020305 29.60253906 37.65087891 C27.74832923 34.12692198 26.52238289 30.47795737 25.34375 26.68359375 C24.96645752 25.51207764 24.96645752 25.51207764 24.58154297 24.31689453 C22.70347864 18.42466547 20.97506033 12.49490857 19.46875 6.49609375 C19.13875 6.49609375 18.80875 6.49609375 18.46875 6.49609375 Z " fill="#FAFAFA" transform="translate(292.53125,24.50390625)"/>
<path d="M0 0 C10.60028856 5.39152608 20.26633818 12.00282236 29.921875 18.92578125 C30.65704346 19.43399414 31.39221191 19.94220703 32.1496582 20.46582031 C39.21699295 25.48391181 42.77621785 31.4957731 44.58203125 40.0546875 C45.77315605 50.77481074 43.59688499 59.37139952 36.921875 67.92578125 C29.76359292 73.94967209 21.24927068 78.38197473 13.171875 83.05078125 C11.8824385 83.80060379 10.59329877 84.55093688 9.30444336 85.30175781 C6.72120901 86.80644866 4.13704131 88.30951572 1.55224609 89.81152344 C-3.48494119 92.74163146 -8.50151726 95.70639472 -13.515625 98.67578125 C-14.83481934 99.45622803 -14.83481934 99.45622803 -16.18066406 100.25244141 C-17.9341918 101.28985355 -19.6876109 102.32744934 -21.44091797 103.36523438 C-25.98531601 106.05434679 -30.53186034 108.73982626 -35.078125 111.42578125 C-36.91797525 112.51300983 -38.75781902 113.60024939 -40.59765625 114.6875 C-44.19894704 116.8155645 -47.80052601 118.94314002 -51.40234375 121.0703125 C-64.8166229 128.9933089 -78.22095743 136.93302381 -91.62255859 144.87744141 C-95.03074616 146.89776187 -98.4391739 148.91767689 -101.84765625 150.9375 C-102.95931152 151.5962915 -104.0709668 152.25508301 -105.21630859 152.93383789 C-107.45473553 154.26015056 -109.6933419 155.58616045 -111.93212891 156.91186523 C-117.67412724 160.31259983 -123.41241351 163.71936855 -129.14453125 167.13671875 C-149.13032142 179.04530542 -149.13032142 179.04530542 -159.265625 184.73828125 C-159.95342041 185.12870605 -160.64121582 185.51913086 -161.34985352 185.92138672 C-171.7536923 191.69193172 -180.99084199 193.11761278 -192.828125 193.17578125 C-193.86195313 193.19640625 -194.89578125 193.21703125 -195.9609375 193.23828125 C-205.79159849 193.28780599 -213.87287733 190.99371525 -222.453125 186.30078125 C-223.49231079 185.74293945 -223.49231079 185.74293945 -224.55249023 185.17382812 C-233.15407652 180.46724799 -241.4831071 175.28066566 -249.84130859 170.15893555 C-256.02863488 166.36935625 -262.22458692 162.6201745 -268.578125 159.11328125 C-275.22689958 155.44292498 -281.73796075 151.56769772 -288.24072266 147.64501953 C-297.23432916 142.22016898 -306.27937313 136.88400323 -315.32666016 131.54931641 C-317.99897421 129.97248513 -320.66972215 128.39304053 -323.33984375 126.8125 C-333.73797561 120.65852324 -344.15224984 114.53260287 -354.578125 108.42578125 C-365.89595099 101.79575217 -377.20772796 95.15591208 -388.48730469 88.4609375 C-391.15262757 86.88163574 -393.8223853 85.3099964 -396.4921875 83.73828125 C-401.38428496 80.84896174 -406.24584461 77.91404732 -411.078125 74.92578125 C-411.68849609 74.55114746 -412.29886719 74.17651367 -412.92773438 73.79052734 C-421.30034182 68.56132849 -424.98930343 63.19224597 -428.078125 53.92578125 C-428.25373307 51.01529344 -428.35531369 48.15028756 -428.390625 45.23828125 C-428.41962891 44.46033203 -428.44863281 43.68238281 -428.47851562 42.88085938 C-428.55312935 35.9991784 -426.52861187 31.23660854 -422.46484375 25.74609375 C-412.55713358 15.86115992 -393.13562353 0.51563053 -378.890625 -0.63671875 C-364.95736156 -0.35725501 -350.33211525 11.85711173 -338.91015625 18.796875 C-331.84438099 23.08421598 -324.71624379 27.26037779 -317.578125 31.42578125 C-308.39887832 36.78773936 -299.249609 42.19489164 -290.140625 47.67578125 C-279.71345715 53.9487088 -269.27141079 60.19381547 -258.77197266 66.34521484 C-256.94413107 67.41766784 -255.11834729 68.4936343 -253.29443359 69.57275391 C-224.58925681 86.5374082 -196.4139525 93.11717374 -163.515625 85.30078125 C-146.42173308 80.2805751 -131.76109064 70.65238325 -116.72875977 61.38032532 C-109.80393182 57.12156744 -102.78836424 53.02032771 -95.765625 48.92578125 C-85.14064015 42.72858112 -85.14064015 42.72858112 -74.578125 36.42578125 C-63.71851625 29.87453537 -52.74988345 23.50530699 -41.80175781 17.10351562 C-38.7759086 15.3341815 -35.75105317 13.56315721 -32.72651672 11.7915802 C-29.99024459 10.18929764 -27.25288896 8.58886866 -24.515625 6.98828125 C-23.01817749 6.11103394 -23.01817749 6.11103394 -21.49047852 5.21606445 C-20.56936279 4.67812256 -19.64824707 4.14018066 -18.69921875 3.5859375 C-17.8992749 3.11808838 -17.09933105 2.65023926 -16.27514648 2.16821289 C-10.5821578 -1.05121365 -6.51215602 -2.27264328 0 0 Z " fill="#F8F8F8" transform="translate(433.078125,255.07421875)"/>
<path d="M0 0 C0.60253601 0.31469238 1.20507202 0.62938477 1.8258667 0.95361328 C8.25938605 4.36288964 14.4575722 8.15972191 20.640625 12 C23.09758333 13.51219851 25.55799075 15.01871123 28.01953125 16.5234375 C28.63633255 16.90076019 29.25313385 17.27808289 29.8886261 17.6668396 C36.056303 21.4278344 42.30784177 25.03804034 48.578125 28.625 C59.25557512 34.73864909 69.82052531 41.02213832 80.359375 47.37109375 C93.4158444 55.23636113 106.54382954 62.97831174 119.765625 70.5625 C120.61543945 71.05129639 121.46525391 71.54009277 122.34082031 72.04370117 C129.0752319 75.88838668 135.76708767 79.64632502 143.140625 82.125 C144.49414062 82.59292969 144.49414062 82.59292969 145.875 83.0703125 C155.426577 85.59617397 164.78553638 86.36192726 174.640625 86.3125 C175.82503174 86.30686035 177.00943848 86.3012207 178.22973633 86.29541016 C202.58100212 85.95911729 220.54735787 77.37592249 240.98535156 65.04296875 C244.59313576 62.87850516 248.2182698 60.74623716 251.8515625 58.625 C252.48413467 58.25558792 253.11670685 57.88617584 253.76844788 57.50556946 C255.04124897 56.76251122 256.31412151 56.01957536 257.58706665 55.27676392 C265.98449682 50.37497847 274.35615492 45.43409856 282.68888855 40.423172 C287.10981911 37.76541863 291.53963548 35.12314521 295.9765625 32.4921875 C296.60771469 32.11789612 297.23886688 31.74360474 297.8891449 31.35797119 C300.53850708 29.78724962 303.18821468 28.21711145 305.8380127 26.64712524 C313.10820166 22.33861956 320.37316883 18.02288568 327.6015625 13.64453125 C328.71096191 12.97373535 329.82036133 12.30293945 330.96337891 11.61181641 C333.00191362 10.37716675 335.03825034 9.13887642 337.07177734 7.89599609 C357.15455303 -4.26001253 357.15455303 -4.26001253 364.390625 -3 C379.71400793 2.52264055 401.67337394 14.55059087 409.390625 29.1875 C413.40325143 37.81186029 413.42308118 46.63984244 410.41796875 55.5859375 C405.22677278 67.7842611 392.71823972 73.56356088 381.7880249 79.87747192 C379.24011358 81.34940918 376.69802368 82.83128028 374.15545654 84.31242371 C372.83872206 85.07935725 371.52170436 85.84580474 370.20440674 86.61177063 C363.70362784 90.39310842 357.23224487 94.22301871 350.765625 98.0625 C349.660979 98.71790771 348.55633301 99.37331543 347.41821289 100.04858398 C345.18980918 101.37087094 342.96153725 102.69338001 340.73339844 104.01611328 C335.12090173 107.34704727 329.50561643 110.67327375 323.890625 114 C321.64061178 115.33331103 319.39061178 116.66664436 317.140625 118 C303.640625 126 290.140625 134 276.640625 142 C275.52647217 142.6602417 274.41231934 143.3204834 273.2644043 144.00073242 C271.01848389 145.3316422 268.77255293 146.66253418 266.52661133 147.9934082 C260.26197606 151.70566687 253.99755347 155.41828362 247.73365784 159.13179016 C243.7815666 161.47462029 239.82836397 163.81556838 235.875 166.15625 C231.63098626 168.66971963 227.39172074 171.1909135 223.15625 173.71875 C222.17116455 174.30503174 221.1860791 174.89131348 220.17114258 175.49536133 C218.35160183 176.57833573 216.53358068 177.66386993 214.7175293 178.75268555 C197.38060468 189.05408976 179.91412183 194.75226633 159.578125 190 C137.95609839 182.58100478 117.89369076 168.16703325 98.41796875 156.41796875 C89.21653994 150.87855724 79.95651451 145.43579987 70.71337891 139.96630859 C67.73434304 138.20340228 64.7558034 136.43966081 61.77734375 134.67578125 C54.01368986 130.08087802 46.24451008 125.49584268 38.45703125 120.94140625 C35.99734295 119.50269455 33.5376841 118.06393257 31.078125 116.625 C30.46132874 116.26415314 29.84453247 115.90330627 29.20904541 115.53152466 C19.72243761 109.9788985 10.28194642 104.35400089 0.86865234 98.67773438 C-4.77337584 95.28189421 -10.4336547 91.92059219 -16.12109375 88.6015625 C-17.08011093 88.04157562 -17.08011093 88.04157562 -18.0585022 87.47027588 C-21.14963034 85.66632505 -24.24295857 83.8663143 -27.33984375 82.07226562 C-33.37633991 78.55669258 -39.34860582 74.96459134 -45.2421875 71.21484375 C-46.11746346 70.66287827 -46.11746346 70.66287827 -47.01042175 70.09976196 C-54.12313328 65.52574192 -58.68504055 60.31991657 -60.609375 52 C-62.14263018 42.64714338 -62.07649419 34.68319928 -57.109375 26.4375 C-50.43692039 17.34771637 -40.35296712 11.75090112 -30.796875 6.125 C-29.13881836 5.13113281 -29.13881836 5.13113281 -27.44726562 4.1171875 C-10.89233426 -5.7257445 -10.89233426 -5.7257445 0 0 Z " fill="#F8F8F8" transform="translate(65.609375,404)"/>
<path d="M0 0 C0.66 0.33 1.32 0.66 2 1 C-0.78748519 2.67373751 -3.58064427 4.33776267 -6.375 6 C-7.1690625 6.47695313 -7.963125 6.95390625 -8.78125 7.4453125 C-9.54179687 7.89648438 -10.30234375 8.34765625 -11.0859375 8.8125 C-12.1385376 9.44091797 -12.1385376 9.44091797 -13.21240234 10.08203125 C-15 11 -15 11 -17 11 C-17 11.66 -17 12.32 -17 13 C-20.97193147 16.12940055 -24.04230204 16.29162929 -29 16 C-25.93948409 13.95965606 -22.86851745 12.42312389 -19.5625 10.8125 C-13.61196962 7.89808187 -7.96167872 4.68211086 -2.328125 1.1875 C-1.55984375 0.795625 -0.7915625 0.40375 0 0 Z " fill="#1C1C1D" transform="translate(305,470)"/>
<path d="M0 0 C0.66 0.33 1.32 0.66 2 1 C0.73548068 2.31858428 -0.53685475 3.62967631 -1.8125 4.9375 C-2.52019531 5.66839844 -3.22789063 6.39929688 -3.95703125 7.15234375 C-6 9 -6 9 -9 10 C-7.61811547 6.78956118 -6.07578097 4.95063635 -3.375 2.75 C-2.74335938 2.22921875 -2.11171875 1.7084375 -1.4609375 1.171875 C-0.73777344 0.59179688 -0.73777344 0.59179688 0 0 Z " fill="#959698" transform="translate(19,420)"/>
<path d="M0 0 C0.66 0.33 1.32 0.66 2 1 C0.88200014 2.33920838 -0.24461897 3.67122556 -1.375 5 C-2.00148438 5.7425 -2.62796875 6.485 -3.2734375 7.25 C-4.12808594 8.11625 -4.12808594 8.11625 -5 9 C-5.66 9 -6.32 9 -7 9 C-5.44499019 5.18315774 -2.96404505 2.80804268 0 0 Z " fill="#A9AAAB" transform="translate(331,100)"/>
<path d="M0 0 C1.77174819 0.08723378 3.54247377 0.19541655 5.3125 0.3125 C6.29863281 0.37050781 7.28476562 0.42851563 8.30078125 0.48828125 C11.24384457 1.04622813 12.18182999 1.68540132 14 4 C9.03083364 3.48594831 4.70973649 2.76615118 0 1 C0 0.67 0 0.34 0 0 Z " fill="#6E6E6C" transform="translate(352,82)"/>
<path d="M0 0 C0.6875 1.625 0.6875 1.625 1 4 C-0.4375 7.25 -0.4375 7.25 -2 10 C-3.98 9.01 -5.96 8.02 -8 7 C-7.34 6.67 -6.68 6.34 -6 6 C-5.01 6.33 -4.02 6.66 -3 7 C-2.01 4.69 -1.02 2.38 0 0 Z " fill="#515150" transform="translate(301,20)"/>
<path d="M0 0 C-4.10457614 2.98514628 -6.97745369 3.2954439 -12 3 C-4.82142857 -1.78571429 -4.82142857 -1.78571429 0 0 Z " fill="#727171" transform="translate(288,483)"/>
</svg>
