<svg width="188" height="44" viewBox="0 0 188 44" fill="none" xmlns="http://www.w3.org/2000/svg">
<circle cx="22" cy="22" r="22" fill="#E0ECFF"/>
<path d="M12.6025 14.5028L20.5633 9.73716C21.4881 9.18364 22.6614 9.18364 23.5862 9.73716L31.5469 14.5028C32.4405 15.0377 32.4405 16.2842 31.5469 16.8191L23.5862 21.5848C22.6614 22.1383 21.4881 22.1383 20.5633 21.5848L12.6025 16.8191C11.709 16.2842 11.709 15.0378 12.6025 14.5028Z" fill="#0740F9"/>
<path opacity="0.3" d="M12.6027 20.8419L14.1112 19.9388L19.5857 23.2159C20.3534 23.6758 21.2145 23.9061 22.0749 23.9061C22.9354 23.9061 23.7959 23.6758 24.5635 23.2165L30.0385 19.9387L31.5472 20.8419C32.4407 21.3768 32.4407 22.6233 31.5472 23.1582L23.5864 27.9239C22.6617 28.4774 21.4883 28.4774 20.5636 27.9239L12.6028 23.1582C11.7093 22.6233 11.7091 21.3769 12.6027 20.8419ZM12.6027 29.4972L20.5635 34.2629C21.4882 34.8164 22.6615 34.8164 23.5863 34.2629L31.5471 29.4972C32.4406 28.9623 32.4406 27.7159 31.5471 27.1809L30.0384 26.2777L24.5634 29.5555C23.7957 30.0148 22.9353 30.2451 22.0748 30.2451C21.2144 30.2451 20.3533 30.0148 19.5856 29.5549L14.1111 26.2779L12.6025 27.1809C11.709 27.7158 11.7091 28.9623 12.6027 29.4972Z" fill="#3B82F6"/>
<path d="M62.8728 21.2743L59.6935 21.47C59.6391 21.1983 59.5223 20.9537 59.3429 20.7363C59.1636 20.5135 58.9272 20.3368 58.6337 20.2064C58.3457 20.0705 58.0005 20.0026 57.5984 20.0026C57.0603 20.0026 56.6065 20.1167 56.237 20.345C55.8674 20.5678 55.6826 20.8667 55.6826 21.2417C55.6826 21.5407 55.8022 21.7934 56.0413 21.9999C56.2804 22.2064 56.6908 22.3722 57.2723 22.4972L59.5386 22.9537C60.756 23.2037 61.6636 23.6058 62.2614 24.1602C62.8592 24.7145 63.1582 25.4428 63.1582 26.345C63.1582 27.1656 62.9163 27.8857 62.4326 28.5053C61.9544 29.1249 61.2967 29.6086 60.4598 29.9564C59.6283 30.2988 58.669 30.47 57.5821 30.47C55.9245 30.47 54.6038 30.1249 53.6201 29.4346C52.6418 28.739 52.0685 27.7933 51.9 26.5977L55.3158 26.4183C55.419 26.9238 55.669 27.3096 56.0658 27.5759C56.4625 27.8368 56.9707 27.9672 57.5902 27.9672C58.1989 27.9672 58.688 27.8504 59.0576 27.6167C59.4326 27.3776 59.6228 27.0705 59.6283 26.6955C59.6228 26.3803 59.4897 26.1221 59.2288 25.9211C58.9679 25.7145 58.5658 25.5569 58.0223 25.4482L55.8538 25.0162C54.631 24.7716 53.7207 24.3477 53.1228 23.7444C52.5304 23.1412 52.2342 22.3722 52.2342 21.4374C52.2342 20.633 52.4516 19.9401 52.8864 19.3586C53.3266 18.7771 53.9435 18.3287 54.737 18.0135C55.5359 17.6983 56.4707 17.5407 57.5413 17.5407C59.1228 17.5407 60.3674 17.8749 61.275 18.5434C62.1881 19.2118 62.7207 20.1222 62.8728 21.2743ZM68.0326 26.6221L68.0407 22.4564H68.5462L72.557 17.7037H76.5435L71.1549 23.9971H70.3315L68.0326 26.6221ZM64.8858 30.2254V13.5298H68.3587V30.2254H64.8858ZM72.7119 30.2254L69.0272 24.7716L71.3424 22.3178L76.7799 30.2254H72.7119ZM82.979 30.47C81.691 30.47 80.5823 30.2091 79.6529 29.6874C78.729 29.1602 78.0171 28.4156 77.5171 27.4537C77.0171 26.4863 76.7671 25.3422 76.7671 24.0216C76.7671 22.7336 77.0171 21.6032 77.5171 20.6303C78.0171 19.6575 78.7209 18.8993 79.6285 18.3559C80.5415 17.8124 81.6122 17.5407 82.8404 17.5407C83.6665 17.5407 84.4356 17.6738 85.1475 17.9401C85.8649 18.201 86.4899 18.595 87.0225 19.1222C87.5606 19.6493 87.979 20.3124 88.2779 21.1113C88.5769 21.9048 88.7263 22.8341 88.7263 23.8993V24.8531H78.1529V22.701H85.4573C85.4573 22.201 85.3486 21.758 85.1312 21.3722C84.9138 20.9863 84.6122 20.6847 84.2263 20.4673C83.8459 20.2445 83.4029 20.133 82.8975 20.133C82.3703 20.133 81.9029 20.2553 81.4953 20.4999C81.0932 20.739 80.7779 21.0624 80.5497 21.47C80.3214 21.8722 80.2046 22.3205 80.1991 22.8151V24.8613C80.1991 25.4808 80.3133 26.0162 80.5415 26.4672C80.7752 26.9183 81.104 27.2662 81.5279 27.5107C81.9519 27.7553 82.4546 27.8776 83.0361 27.8776C83.422 27.8776 83.7752 27.8232 84.0959 27.7145C84.4165 27.6058 84.691 27.4428 84.9192 27.2254C85.1475 27.008 85.3214 26.7417 85.441 26.4265L88.6529 26.6384C88.4899 27.4102 88.1557 28.0841 87.6502 28.6602C87.1502 29.2308 86.5035 29.6765 85.71 29.9971C84.922 30.3124 84.0116 30.47 82.979 30.47ZM94.0063 13.5298V30.2254H90.5335V13.5298H94.0063ZM102.036 30.47C100.748 30.47 99.6389 30.2091 98.7095 29.6874C97.7856 29.1602 97.0737 28.4156 96.5737 27.4537C96.0737 26.4863 95.8237 25.3422 95.8237 24.0216C95.8237 22.7336 96.0737 21.6032 96.5737 20.6303C97.0737 19.6575 97.7775 18.8993 98.6851 18.3559C99.5981 17.8124 100.669 17.5407 101.897 17.5407C102.723 17.5407 103.492 17.6738 104.204 17.9401C104.921 18.201 105.546 18.595 106.079 19.1222C106.617 19.6493 107.036 20.3124 107.334 21.1113C107.633 21.9048 107.783 22.8341 107.783 23.8993V24.8531H97.2095V22.701H104.514C104.514 22.201 104.405 21.758 104.188 21.3722C103.97 20.9863 103.669 20.6847 103.283 20.4673C102.902 20.2445 102.459 20.133 101.954 20.133C101.427 20.133 100.959 20.2553 100.552 20.4999C100.15 20.739 99.8345 21.0624 99.6063 21.47C99.378 21.8722 99.2612 22.3205 99.2557 22.8151V24.8613C99.2557 25.4808 99.3699 26.0162 99.5981 26.4672C99.8318 26.9183 100.161 27.2662 100.584 27.5107C101.008 27.7553 101.511 27.8776 102.093 27.8776C102.479 27.8776 102.832 27.8232 103.152 27.7145C103.473 27.6058 103.748 27.4428 103.976 27.2254C104.204 27.008 104.378 26.7417 104.498 26.4265L107.709 26.6384C107.546 27.4102 107.212 28.0841 106.707 28.6602C106.207 29.2308 105.56 29.6765 104.767 29.9971C103.979 30.3124 103.068 30.47 102.036 30.47ZM109.59 30.2254V17.7037H112.9V19.9129H113.047C113.307 19.1792 113.742 18.6004 114.351 18.1765C114.96 17.7526 115.688 17.5407 116.536 17.5407C117.394 17.5407 118.125 17.7553 118.729 18.1847C119.332 18.6086 119.734 19.1847 119.935 19.9129H120.066C120.321 19.1955 120.783 18.6222 121.451 18.1928C122.125 17.758 122.922 17.5407 123.84 17.5407C125.009 17.5407 125.957 17.9129 126.685 18.6575C127.419 19.3966 127.786 20.4455 127.786 21.8042V30.2254H124.321V22.489C124.321 21.7934 124.136 21.2716 123.767 20.9238C123.397 20.576 122.935 20.4021 122.381 20.4021C121.75 20.4021 121.259 20.6032 120.905 21.0053C120.552 21.4021 120.375 21.9265 120.375 22.5787V30.2254H117.009V22.4157C117.009 21.8015 116.832 21.3124 116.479 20.9483C116.131 20.5841 115.672 20.4021 115.101 20.4021C114.715 20.4021 114.367 20.4999 114.057 20.6955C113.753 20.8858 113.511 21.1548 113.332 21.5026C113.153 21.845 113.063 22.2472 113.063 22.7091V30.2254H109.59ZM135.776 30.47C134.488 30.47 133.38 30.2091 132.45 29.6874C131.526 29.1602 130.814 28.4156 130.314 27.4537C129.814 26.4863 129.564 25.3422 129.564 24.0216C129.564 22.7336 129.814 21.6032 130.314 20.6303C130.814 19.6575 131.518 18.8993 132.426 18.3559C133.339 17.8124 134.409 17.5407 135.638 17.5407C136.464 17.5407 137.233 17.6738 137.945 17.9401C138.662 18.201 139.287 18.595 139.82 19.1222C140.358 19.6493 140.776 20.3124 141.075 21.1113C141.374 21.9048 141.524 22.8341 141.524 23.8993V24.8531H130.95V22.701H138.255C138.255 22.201 138.146 21.758 137.928 21.3722C137.711 20.9863 137.41 20.6847 137.024 20.4673C136.643 20.2445 136.2 20.133 135.695 20.133C135.168 20.133 134.7 20.2553 134.293 20.4999C133.89 20.739 133.575 21.0624 133.347 21.47C133.119 21.8722 133.002 22.3205 132.996 22.8151V24.8613C132.996 25.4808 133.111 26.0162 133.339 26.4672C133.573 26.9183 133.901 27.2662 134.325 27.5107C134.749 27.7553 135.252 27.8776 135.833 27.8776C136.219 27.8776 136.572 27.8232 136.893 27.7145C137.214 27.6058 137.488 27.4428 137.717 27.2254C137.945 27.008 138.119 26.7417 138.238 26.4265L141.45 26.6384C141.287 27.4102 140.953 28.0841 140.447 28.6602C139.947 29.2308 139.301 29.6765 138.507 29.9971C137.719 30.3124 136.809 30.47 135.776 30.47ZM146.804 22.9863V30.2254H143.331V17.7037H146.641V19.9129H146.787C147.064 19.1847 147.529 18.6086 148.181 18.1847C148.833 17.7553 149.624 17.5407 150.554 17.5407C151.423 17.5407 152.181 17.7309 152.828 18.1113C153.475 18.4917 153.978 19.0352 154.336 19.7417C154.695 20.4428 154.874 21.2798 154.874 22.2526V30.2254H151.401V22.8722C151.407 22.1059 151.211 21.508 150.814 21.0787C150.418 20.6439 149.872 20.4265 149.176 20.4265C148.708 20.4265 148.296 20.5271 147.937 20.7282C147.583 20.9292 147.306 21.2227 147.105 21.6086C146.91 21.989 146.809 22.4483 146.804 22.9863ZM163.813 17.7037V20.3124H156.272V17.7037H163.813ZM157.984 14.7037H161.457V26.3776C161.457 26.6982 161.505 26.9482 161.603 27.1276C161.701 27.3015 161.837 27.4238 162.011 27.4944C162.19 27.5651 162.397 27.6004 162.63 27.6004C162.794 27.6004 162.957 27.5868 163.12 27.5596C163.283 27.527 163.408 27.5026 163.495 27.4863L164.041 30.0705C163.867 30.1249 163.622 30.1874 163.307 30.258C162.992 30.3341 162.609 30.3803 162.158 30.3966C161.321 30.4292 160.587 30.3178 159.957 30.0624C159.332 29.8069 158.845 29.4102 158.497 28.8721C158.15 28.3341 157.978 27.6547 157.984 26.8341V14.7037ZM171.139 30.47C169.872 30.47 168.777 30.2009 167.853 29.6629C166.935 29.1194 166.226 28.364 165.726 27.3966C165.226 26.4238 164.976 25.2961 164.976 24.0134C164.976 22.72 165.226 21.5896 165.726 20.6222C166.226 19.6493 166.935 18.8939 167.853 18.3559C168.777 17.8124 169.872 17.5407 171.139 17.5407C172.405 17.5407 173.497 17.8124 174.416 18.3559C175.34 18.8939 176.052 19.6493 176.552 20.6222C177.052 21.5896 177.302 22.72 177.302 24.0134C177.302 25.2961 177.052 26.4238 176.552 27.3966C176.052 28.364 175.34 29.1194 174.416 29.6629C173.497 30.2009 172.405 30.47 171.139 30.47ZM171.155 27.7797C171.731 27.7797 172.212 27.6167 172.598 27.2906C172.984 26.9591 173.275 26.508 173.47 25.9374C173.671 25.3667 173.772 24.7172 173.772 23.989C173.772 23.2607 173.671 22.6113 173.47 22.0407C173.275 21.47 172.984 21.0189 172.598 20.6874C172.212 20.3559 171.731 20.1901 171.155 20.1901C170.574 20.1901 170.084 20.3559 169.688 20.6874C169.296 21.0189 169 21.47 168.799 22.0407C168.603 22.6113 168.506 23.2607 168.506 23.989C168.506 24.7172 168.603 25.3667 168.799 25.9374C169 26.508 169.296 26.9591 169.688 27.2906C170.084 27.6167 170.574 27.7797 171.155 27.7797ZM179.101 30.2254V17.7037H182.468V19.8885H182.598C182.826 19.1113 183.21 18.5243 183.748 18.1276C184.286 17.7254 184.905 17.5243 185.606 17.5243C185.78 17.5243 185.968 17.5352 186.169 17.557C186.37 17.5787 186.546 17.6086 186.699 17.6466V20.7282C186.536 20.6792 186.31 20.6358 186.022 20.5977C185.734 20.5597 185.47 20.5407 185.231 20.5407C184.72 20.5407 184.264 20.6521 183.862 20.8749C183.465 21.0923 183.15 21.3966 182.916 21.7879C182.688 22.1792 182.574 22.6303 182.574 23.1412V30.2254H179.101Z" fill="black"/>
</svg>
