<svg width="2338" height="2338" viewBox="0 0 2338 2338" fill="none" xmlns="http://www.w3.org/2000/svg">
<circle cx="1169" cy="1169" r="1169" fill="#E0ECFF"/>
<path d="M669.654 770.641L1092.66 517.411C1141.8 487.999 1204.15 487.999 1253.28 517.411L1676.29 770.641C1723.77 799.063 1723.77 865.298 1676.29 893.72L1253.28 1146.95C1204.15 1176.36 1141.8 1176.36 1092.66 1146.95L669.654 893.72C622.174 865.298 622.174 799.07 669.654 770.641Z" fill="#0740F9"/>
<path opacity="0.3" d="M669.66 1107.45L749.82 1059.46L1040.71 1233.59C1081.51 1258.03 1127.26 1270.27 1172.98 1270.27C1218.7 1270.27 1264.43 1258.03 1305.22 1233.63L1596.14 1059.46L1676.3 1107.45C1723.78 1135.87 1723.78 1202.11 1676.3 1230.53L1253.3 1483.76C1204.16 1513.17 1141.81 1513.17 1092.67 1483.76L669.667 1230.53C622.187 1202.11 622.18 1135.88 669.66 1107.45ZM669.66 1567.36L1092.67 1820.59C1141.8 1850 1204.15 1850 1253.29 1820.59L1676.3 1567.36C1723.78 1538.94 1723.78 1472.71 1676.3 1444.28L1596.13 1396.29L1305.21 1570.46C1264.42 1594.87 1218.7 1607.1 1172.98 1607.1C1127.25 1607.1 1081.5 1594.87 1040.71 1570.42L749.813 1396.3L669.654 1444.28C622.174 1472.7 622.18 1538.94 669.66 1567.36Z" fill="#3B82F6"/>
</svg>
